<svg width="21" height="21" viewBox="0 0 21 21" fill="none" xmlns="http://www.w3.org/2000/svg">
<g clip-path="url(#clip0_167_875)">
<path d="M17.9948 8.83337C17.9948 14.6667 10.4113 19.6667 10.4113 19.6667C10.4113 19.6667 2.82782 14.6667 2.82782 8.83337C2.82782 6.84425 3.62679 4.9366 5.04898 3.53007C6.47116 2.12355 8.40005 1.33337 10.4113 1.33337C12.4226 1.33337 14.3515 2.12355 15.7737 3.53007C17.1959 4.9366 17.9948 6.84425 17.9948 8.83337Z" stroke="#338573" stroke-width="2" stroke-linecap="round" stroke-linejoin="round"/>
<path d="M10.4113 11.3334C11.8074 11.3334 12.9392 10.2141 12.9392 8.83337C12.9392 7.45266 11.8074 6.33337 10.4113 6.33337C9.01523 6.33337 7.88348 7.45266 7.88348 8.83337C7.88348 10.2141 9.01523 11.3334 10.4113 11.3334Z" stroke="#338573" stroke-width="2" stroke-linecap="round" stroke-linejoin="round"/>
</g>
<defs>
<clipPath id="clip0_167_875">
<rect width="20.2227" height="20" fill="white" transform="translate(0.299988 0.5)"/>
</clipPath>
</defs>
</svg>
