<svg width="19" height="19" viewBox="0 0 19 19" fill="none" xmlns="http://www.w3.org/2000/svg">
<path d="M1.52271 13H4.17693C4.64623 13 5.0963 13.1844 5.42815 13.5126C5.75999 13.8408 5.94642 14.2859 5.94642 14.75V17.375M5.94642 1.625V4.25C5.94642 4.71413 5.75999 5.15925 5.42815 5.48744C5.0963 5.81563 4.64623 6 4.17693 6H1.52271L5.94642 1.625ZM17.4481 6H14.7938C14.3245 6 13.8745 5.81563 13.5426 5.48744C13.2108 5.15925 13.0244 4.71413 13.0244 4.25V1.625L17.4481 6ZM13.0244 17.375V14.75C13.0244 14.2859 13.2108 13.8408 13.5426 13.5126C13.8745 13.1844 14.3245 13 14.7938 13H17.4481L13.0244 17.375Z" stroke="#338573" stroke-width="2" stroke-linecap="round" stroke-linejoin="round"/>
</svg>
