<svg width="47" height="38" viewBox="0 0 47 38" fill="none" xmlns="http://www.w3.org/2000/svg">
<path d="M0.6875 37.75V31.9167C0.6875 30.7708 0.982639 29.6944 1.57292 28.6875C2.16319 27.6806 2.97917 26.9167 4.02083 26.3958C5.79167 25.4931 7.78819 24.7292 10.0104 24.1042C12.2326 23.4792 14.6806 23.1667 17.3542 23.1667C20.0278 23.1667 22.4757 23.4792 24.6979 24.1042C26.9201 24.7292 28.9167 25.4931 30.6875 26.3958C31.7292 26.9167 32.5451 27.6806 33.1354 28.6875C33.7257 29.6944 34.0208 30.7708 34.0208 31.9167V37.75H0.6875ZM17.3542 21.0833C15.0625 21.0833 13.1007 20.2674 11.4688 18.6354C9.83681 17.0035 9.02083 15.0417 9.02083 12.75H8.5C8.1875 12.75 7.93611 12.6542 7.74583 12.4625C7.55556 12.2708 7.45972 12.0194 7.45833 11.7083C7.45833 11.3958 7.55417 11.1437 7.74583 10.9521C7.9375 10.7604 8.18889 10.6653 8.5 10.6667H9.02083C9.02083 9.10417 9.40278 7.69792 10.1667 6.44792C10.9306 5.19792 11.9375 4.20833 13.1875 3.47917V5.45833C13.1875 5.77083 13.2833 6.02292 13.475 6.21458C13.6667 6.40625 13.9181 6.50139 14.2292 6.5C14.5417 6.5 14.7937 6.40417 14.9854 6.2125C15.1771 6.02083 15.2722 5.76944 15.2708 5.45833V2.64583C15.5833 2.54167 15.9132 2.46319 16.2604 2.41042C16.6076 2.35764 16.9722 2.33194 17.3542 2.33333C17.7361 2.33333 18.1007 2.35972 18.4479 2.4125C18.7951 2.46528 19.125 2.54306 19.4375 2.64583V5.45833C19.4375 5.77083 19.5333 6.02292 19.725 6.21458C19.9167 6.40625 20.1681 6.50139 20.4792 6.5C20.7917 6.5 21.0437 6.40417 21.2354 6.2125C21.4271 6.02083 21.5222 5.76944 21.5208 5.45833V3.47917C22.7708 4.20833 23.7778 5.19792 24.5417 6.44792C25.3056 7.69792 25.6875 9.10417 25.6875 10.6667H26.2083C26.5208 10.6667 26.7729 10.7625 26.9646 10.9542C27.1562 11.1458 27.2514 11.3972 27.25 11.7083C27.25 12.0208 27.1542 12.2729 26.9625 12.4646C26.7708 12.6562 26.5194 12.7514 26.2083 12.75H25.6875C25.6875 15.0417 24.8715 17.0035 23.2396 18.6354C21.6076 20.2674 19.6458 21.0833 17.3542 21.0833ZM17.3542 16.9167C18.5 16.9167 19.4812 16.5083 20.2979 15.6917C21.1146 14.875 21.5222 13.8944 21.5208 12.75H13.1875C13.1875 13.8958 13.5958 14.8771 14.4125 15.6937C15.2292 16.5104 16.2097 16.9181 17.3542 16.9167ZM32.9792 25.25L32.6667 23.6875C32.4583 23.6181 32.259 23.5396 32.0688 23.4521C31.8785 23.3646 31.6958 23.2347 31.5208 23.0625L30.0625 23.5833L29.0208 21.7083L30.1667 20.6667V19.4167L29.0208 18.375L30.0625 16.5L31.5208 17.0208C31.6597 16.8819 31.8333 16.7604 32.0417 16.6562C32.25 16.5521 32.4583 16.4653 32.6667 16.3958L32.9792 14.8333H35.0625L35.375 16.3958C35.5833 16.4653 35.7917 16.5521 36 16.6562C36.2083 16.7604 36.3819 16.8819 36.5208 17.0208L37.9792 16.5L39.0208 18.375L37.875 19.4167V20.6667L39.0208 21.7083L37.9792 23.5833L36.5208 23.0625C36.3472 23.2361 36.1646 23.3667 35.9729 23.4542C35.7812 23.5417 35.5819 23.6194 35.375 23.6875L35.0625 25.25H32.9792ZM34.0208 21.6042C34.4375 21.6042 34.8021 21.4479 35.1146 21.1354C35.4271 20.8229 35.5833 20.4583 35.5833 20.0417C35.5833 19.625 35.4271 19.2604 35.1146 18.9479C34.8021 18.6354 34.4375 18.4792 34.0208 18.4792C33.6042 18.4792 33.2396 18.6354 32.9271 18.9479C32.6146 19.2604 32.4583 19.625 32.4583 20.0417C32.4583 20.4583 32.6146 20.8229 32.9271 21.1354C33.2396 21.4479 33.6042 21.6042 34.0208 21.6042ZM37.7708 14.8333L37.3542 12.6458C37.0417 12.5417 36.7556 12.4111 36.4958 12.2542C36.2361 12.0972 36.0014 11.9153 35.7917 11.7083L33.6042 12.4375L32.1458 9.9375L33.9167 8.375C33.8472 8.20139 33.8125 8.0625 33.8125 7.95833V7.125C33.8125 7.02083 33.8472 6.88194 33.9167 6.70833L32.1458 5.14583L33.6042 2.64583L35.7917 3.375C36 3.16667 36.2347 2.98403 36.4958 2.82708C36.7569 2.67014 37.0431 2.54028 37.3542 2.4375L37.7708 0.25H40.6875L41.1042 2.4375C41.4167 2.54167 41.7035 2.67222 41.9646 2.82917C42.2257 2.98611 42.4597 3.16806 42.6667 3.375L44.8542 2.64583L46.3125 5.14583L44.5417 6.70833C44.6111 6.88194 44.6458 7.02083 44.6458 7.125V7.95833C44.6458 8.0625 44.6111 8.20139 44.5417 8.375L46.3125 9.9375L44.8542 12.4375L42.6667 11.7083C42.4583 11.9167 42.2243 12.0993 41.9646 12.2562C41.7049 12.4132 41.4181 12.5431 41.1042 12.6458L40.6875 14.8333H37.7708ZM39.2292 10.1458C39.9583 10.1458 40.575 9.89375 41.0792 9.38958C41.5833 8.88542 41.8347 8.26944 41.8333 7.54167C41.8333 6.8125 41.5813 6.19583 41.0771 5.69167C40.5729 5.1875 39.9569 4.93611 39.2292 4.9375C38.5 4.9375 37.8833 5.18958 37.3792 5.69375C36.875 6.19792 36.6236 6.81389 36.625 7.54167C36.625 8.27083 36.8771 8.8875 37.3813 9.39167C37.8854 9.89583 38.5014 10.1472 39.2292 10.1458Z" fill="#338573"/>
</svg>
