<svg width="45" height="35" viewBox="0 0 45 35" fill="none" xmlns="http://www.w3.org/2000/svg">
<path d="M38.125 28.125H6.875C6.04645 28.1242 5.25208 27.7947 4.66621 27.2088C4.08033 26.6229 3.75083 25.8285 3.75 25V3.125C3.75083 2.29645 4.08033 1.50208 4.66621 0.916205C5.25208 0.330333 6.04645 0.000827307 6.875 0H38.125C38.9535 0.000827307 39.7479 0.330333 40.3338 0.916205C40.9197 1.50208 41.2492 2.29645 41.25 3.125V25C41.2488 25.8284 40.9191 26.6226 40.3333 27.2083C39.7476 27.7941 38.9534 28.1238 38.125 28.125ZM6.875 3.125V25H38.125V3.125H6.875ZM0.625 31.25H44.375V34.375H0.625V31.25Z" fill="#338573"/>
</svg>
