<svg width="30" height="29" viewBox="0 0 30 29" fill="none" xmlns="http://www.w3.org/2000/svg">
<path d="M14.75 13.775C13.3529 13.775 12.013 13.3931 11.0251 12.7133C10.0371 12.0334 9.48214 11.1114 9.48214 10.15C9.48214 9.18859 10.0371 8.26656 11.0251 7.58674C12.013 6.90692 13.3529 6.525 14.75 6.525C16.1471 6.525 17.487 6.90692 18.4749 7.58674C19.4629 8.26656 20.0179 9.18859 20.0179 10.15C20.0179 10.626 19.8816 11.0974 19.6169 11.5372C19.3521 11.977 18.9641 12.3766 18.4749 12.7133C17.9858 13.0499 17.405 13.3169 16.7659 13.4991C16.1268 13.6812 15.4418 13.775 14.75 13.775ZM14.75 0C10.8381 0 7.08634 1.06937 4.32017 2.97287C1.55401 4.87636 0 7.45805 0 10.15C0 17.7625 14.75 29 14.75 29C14.75 29 29.5 17.7625 29.5 10.15C29.5 7.45805 27.946 4.87636 25.1798 2.97287C22.4137 1.06937 18.6619 0 14.75 0Z" fill="#338573"/>
</svg>
