<svg width="30" height="29" viewBox="0 0 30 29" fill="none" xmlns="http://www.w3.org/2000/svg">
<path d="M27.2056 29L16.8806 18.85C16.0611 19.4944 15.1187 20.0046 14.0535 20.3806C12.9882 20.7565 11.8546 20.9444 10.6528 20.9444C7.67546 20.9444 5.15594 19.9305 3.09422 17.9027C1.0325 15.8748 0.00109259 13.398 0 10.4722C0 7.54537 1.03141 5.06856 3.09422 3.04178C5.15704 1.015 7.67656 0.00107407 10.6528 0C13.6301 0 16.1496 1.01393 18.2113 3.04178C20.2731 5.06963 21.3045 7.54644 21.3056 10.4722C21.3056 11.6537 21.1144 12.7681 20.7319 13.8153C20.3495 14.8625 19.8306 15.7889 19.175 16.5944L29.5 26.7444L27.2056 29ZM10.6528 17.7222C12.7014 17.7222 14.443 17.0171 15.8776 15.6068C17.3121 14.1966 18.0289 12.485 18.0278 10.4722C18.0278 8.45833 17.3105 6.74626 15.8759 5.336C14.4413 3.92574 12.7003 3.22115 10.6528 3.22222C8.60417 3.22222 6.86257 3.92735 5.428 5.33761C3.99343 6.74787 3.27668 8.45941 3.27778 10.4722C3.27778 12.4861 3.99506 14.1982 5.42964 15.6084C6.86421 17.0187 8.60526 17.7233 10.6528 17.7222Z" fill="#338573"/>
</svg>
